HIERARCHY
ROOT Hips
{
	OFFSET 0.000000 0.000000 0.000000
	CHANNELS 6 Xposition Yposition Zposition Zrotation Yrotation Xrotation 
	JOINT LHipJoint
	{
		OFFSET 0.000000 0.000000 0.000000
		CHANNELS 3 Zrotation Yrotation Xrotation
		JOINT LeftUpLeg
		{
			OFFSET 1.363060 -1.794630 0.839290
			CHANNELS 3 Zrotation Yrotation Xrotation
			JOINT LeftLeg
			{
				OFFSET 2.448110 -6.726130 0.000000
				CHANNELS 3 Zrotation Yrotation Xrotation
				JOINT LeftFoot
				{
					OFFSET 2.562200 -7.039590 0.000000
					CHANNELS 3 Zrotation Yrotation Xrotation
					JOINT LeftToeBase
					{
						OFFSET 0.157640 -0.433110 2.322550
						CHANNELS 3 Zrotation Yrotation Xrotation
						End Site
						{
							OFFSET 0.000000 0.000000 0.000000
						}
					}
				}
			}
		}
	}
	JOINT RHipJoint
	{
		OFFSET 0.000000 0.000000 0.000000
		CHANNELS 3 Zrotation Yrotation Xrotation
		JOINT RightUpLeg
		{
			OFFSET -1.305520 -1.794630 0.839290
			CHANNELS 3 Zrotation Yrotation Xrotation
			JOINT RightLeg
			{
				OFFSET -2.542530 -6.985550 0.000000
				CHANNELS 3 Zrotation Yrotation Xrotation
				JOINT RightFoot
				{
					OFFSET -2.568260 -7.056230 0.000000
					CHANNELS 3 Zrotation Yrotation Xrotation
					JOINT RightToeBase
					{
						OFFSET -0.164730 -0.452590 2.363150
						CHANNELS 3 Zrotation Yrotation Xrotation
						End Site
						{
							OFFSET 0.000000 0.000000 0.000000
						}
					}
				}
			}
		}
	}
}
MOTION
Frames: 19
Frame Time: 0.008333
3.847014 17.325273 -1.229361 130.298911 -50.684166 -126.830547 -0.352713 -4.484979 4.972430 22.618726 -3.772063 -108.100397 0.643234 2.419395 52.713251 1.342470 -3.001445 42.022590 -2.780300 -0.000000 -61.236100 18.315193 5.353584 -0.727994 -24.621984 5.126920 -15.590134 -2.083589 -2.316326 24.765689 -0.839622 -1.535539 -7.832061 -0.096401 0.000000 -64.193200
3.862368 17.345087 -1.238535 130.200720 -50.968683 -126.218891 -0.445129 -4.193963 5.363255 24.476370 -3.739037 -105.216535 0.444344 1.851581 44.440055 1.145127 -3.501094 42.028467 -3.076000 -0.000000 -61.159700 18.344059 5.360051 -0.743734 -24.511201 4.954113 -15.778360 -2.105516 -2.288238 23.993236 -0.865578 -1.676995 -7.449065 -0.118900 -0.000000 -63.899100
3.877993 17.366455 -1.247740 130.278355 -51.150124 -125.855424 -0.563088 -3.905553 5.682308 26.325259 -3.727865 -101.832671 0.265313 1.292250 35.803812 0.964016 -3.698173 42.040379 -3.139299 0.000000 -61.204000 18.377978 5.336440 -0.736604 -24.382737 4.926808 -15.883613 -2.129839 -2.261407 23.148266 -0.889191 -1.807731 -7.027584 -0.144000 0.000000 -63.598600
3.893326 17.389073 -1.255951 130.582086 -51.198282 -125.838047 -0.693372 -3.644904 5.878590 28.084687 -3.754357 -97.937418 0.082830 0.758162 27.023347 0.826703 -3.411311 42.083697 -2.837101 -0.000000 -61.226400 18.402645 5.270005 -0.702275 -24.217663 5.078990 -15.867951 -2.153238 -2.235008 22.237762 -0.907860 -1.916149 -6.572176 -0.170700 -0.000001 -63.299700
3.907340 17.412700 -1.261550 131.165278 -51.090575 -126.253813 -0.822186 -3.442372 5.909638 29.590294 -3.823873 -93.651788 -0.124668 0.278496 18.492944 0.741016 -2.632322 42.134192 -2.165500 0.000000 -60.867900 18.395658 5.148653 -0.637690 -23.982446 5.444601 -15.704200 -2.169889 -2.206476 21.274395 -0.919695 -1.995537 -6.093987 -0.197700 0.000000 -62.986700
3.918908 17.436945 -1.263008 132.052237 -50.824077 -127.127589 -0.942817 -3.325283 5.765254 30.486477 -3.894753 -89.299904 -0.392080 -0.113554 10.744081 0.673515 -1.710394 42.098661 -1.389200 -0.000000 -59.997100 18.336115 4.969431 -0.542808 -23.643471 6.036991 -15.393907 -2.173812 -2.171573 20.275661 -0.924398 -2.048608 -5.604359 -0.224401 -0.000000 -62.652400
3.927336 17.461427 -1.260452 133.188873 -50.420727 -128.360492 -1.052216 -3.311257 5.475489 30.185757 -3.842007 -85.380706 -0.782779 -0.405651 4.305417 0.546789 -1.441713 41.815291 -1.107800 0.000000 -58.654900 18.221438 4.746266 -0.418257 -23.206084 6.815854 -14.982055 -2.164267 -2.125231 19.263499 -0.922900 -2.083948 -5.108626 -0.251199 -0.000000 -62.295600
3.933650 17.485228 -1.257033 134.384270 -49.911807 -129.706312 -1.130645 -3.391083 5.094635 28.285259 -3.561700 -82.262844 -1.336992 -0.631527 -0.623069 0.309107 -2.477845 41.239180 -1.798300 0.000000 -57.486000 18.088964 4.511138 -0.263464 -22.772440 7.644739 -14.548762 -2.151882 -2.066545 18.265453 -0.912201 -2.084755 -4.597199 -0.276800 -0.000000 -61.984800
3.939025 17.507481 -1.255701 135.425612 -49.342471 -130.917806 -1.157925 -3.522544 4.670722 24.882818 -3.072747 -80.058149 -2.030076 -0.829185 -4.075526 -0.028739 -4.834789 40.339535 -3.426001 0.000000 -56.712100 17.985459 4.292619 -0.081443 -22.467253 8.356065 -14.170797 -2.148306 -1.999680 17.316178 -0.885733 -2.009991 -4.067223 -0.295800 -0.000000 -61.784101
3.943410 17.527505 -1.257291 136.183011 -48.774217 -131.838571 -1.135118 -3.637905 4.256921 20.748006 -2.572049 -78.526833 -2.750789 -1.021729 -6.374744 -0.379521 -7.592161 39.207260 -5.266100 0.000000 -56.533801 17.940109 4.106618 0.115035 -22.360266 8.825003 -13.899699 -2.158164 -1.933041 16.450983 -0.838824 -1.823994 -3.532758 -0.300699 -0.000000 -61.733900
3.945469 17.544859 -1.260158 136.672406 -48.272986 -132.455679 -1.095481 -3.693639 3.898542 16.660881 -2.225043 -77.395009 -3.395782 -1.200577 -7.788635 -0.673249 -9.822310 37.905485 -6.638000 0.000000 -56.743300 17.940974 3.952977 0.310399 -22.403092 9.050029 -13.752584 -2.176297 -1.871356 15.694723 -0.777962 -1.553617 -3.027549 -0.290400 -0.000000 -61.796700
3.943518 17.559612 -1.261825 136.998071 -47.904440 -132.830967 -1.086997 -3.665126 3.643615 13.096407 -2.107693 -76.926477 -3.908569 -1.287199 -7.702829 -0.827598 -11.086158 36.030331 -7.252000 0.000000 -57.022500 17.955588 3.825266 0.489207 -22.484832 9.121398 -13.720384 -2.193306 -1.815622 15.054416 -0.718327 -1.279065 -2.587559 -0.272801 0.000000 -61.892299
3.936331 17.571898 -1.261104 137.261919 -47.676553 -133.072246 -1.122981 -3.589577 3.450136 10.135481 -2.159204 -76.330731 -4.300795 -1.349914 -7.471534 -0.946207 -11.414005 34.405367 -7.194900 -0.000000 -57.184700 17.946354 3.704397 0.660268 -22.508114 9.150878 -13.768056 -2.203303 -1.761503 14.525938 -0.675435 -1.088356 -2.239879 -0.260800 -0.000000 -61.937800
3.923569 17.581841 -1.257498 137.535842 -47.584607 -133.263602 -1.206510 -3.503136 3.294646 7.792408 -2.309912 -75.182390 -4.570556 -1.441262 -7.852373 -1.094651 -10.996924 33.521329 -6.668900 -0.000001 -57.132700 17.889165 3.579942 0.825930 -22.410186 9.226066 -13.856809 -2.202501 -1.706022 14.098676 -0.659622 -1.043089 -1.999622 -0.265400 0.000000 -61.880900
3.904978 17.589678 -1.250829 137.864507 -47.657919 -133.426380 -1.358797 -3.374068 3.222273 6.094545 -2.601123 -74.604977 -4.720118 -1.393920 -6.867487 -1.112568 -10.118747 32.269137 -5.891000 0.000000 -56.832400 17.778997 3.452858 0.973489 -22.149807 9.399690 -13.961690 -2.187607 -1.650357 13.755506 -0.676958 -1.179522 -1.872298 -0.293500 -0.000000 -61.692100
3.880862 17.595431 -1.241377 138.259964 -47.873033 -133.597985 -1.565329 -3.237796 3.209074 5.109975 -3.030556 -74.017363 -4.739686 -1.288231 -5.558252 -1.064347 -8.857001 31.286054 -4.956700 -0.000000 -56.316500 17.611112 3.321831 1.102568 -21.721672 9.682496 -14.052268 -2.158505 -1.593287 13.483083 -0.727423 -1.497367 -1.853198 -0.346000 -0.000000 -61.365100
3.851805 17.599339 -1.229437 138.708773 -48.219930 -133.775586 -1.813498 -3.107675 3.263485 4.950107 -3.671409 -73.286386 -4.612944 -1.153880 -4.191512 -0.945175 -7.210901 30.723326 -3.881901 0.000000 -55.658300 17.392652 3.194280 1.203871 -21.144031 10.045569 -14.110626 -2.116297 -1.535629 13.264070 -0.807025 -1.971102 -1.927190 -0.418200 0.000000 -60.938400
3.818441 17.601585 -1.215334 139.180512 -48.686357 -133.937902 -2.087917 -2.987656 3.390127 5.591595 -4.591788 -72.399051 -4.347087 -1.010615 -2.870518 -0.761304 -5.284282 30.608241 -2.712400 -0.000000 -54.902700 17.133990 3.076895 1.272401 -20.446542 10.439776 -14.138915 -2.062598 -1.478419 13.096454 -0.908510 -2.555979 -2.078944 -0.501800 0.000000 -60.361101
3.781972 17.602441 -1.199850 139.631307 -49.260551 -134.059041 -2.369003 -2.874647 3.580691 6.898727 -5.839464 -71.384807 -3.968531 -0.871012 -1.633133 -0.529380 -3.239426 30.916147 -1.510800 -0.000000 -54.111399 16.851423 2.974453 1.304749 -19.668837 10.804994 -14.131394 -2.000332 -1.422330 12.960978 -1.023354 -3.201950 -2.284398 -0.588299 0.000000 -59.729900
